<svg width="542" height="591" viewBox="0 0 542 591" fill="none" xmlns="http://www.w3.org/2000/svg">
<g clip-path="url(#clip0)">
<path d="M362.923 198.066C393.78 196.492 417.601 171.805 416.128 142.925C414.656 114.046 388.447 91.9109 357.589 93.4851C326.732 95.0593 302.911 119.747 304.384 148.626C305.856 177.505 332.065 199.64 362.923 198.066Z" fill="white"/>
<path d="M58.6016 164.682C71.7284 165.255 75.9478 168.849 75.9478 173.642C74.7698 179.699 71.6192 185.195 66.9883 189.272C68.1863 204.224 68.7593 222.198 68.7593 241.37C68.7593 270.076 66.9882 301.752 63.9669 331.656C39.4845 330.458 19.1172 328.634 0 326.863C3.59423 287.425 5.20903 240.745 5.20903 203.078C5.20903 188.178 5.20906 174.424 4.58398 163.64L58.6016 164.682ZM83.0842 58.2454H143.457C157.834 58.2454 163.824 61.8401 163.824 67.2062C163.824 72.5723 159.032 77.9905 153.041 83.9818V173.069L200.86 151.553C216.487 172.392 233.156 206.516 243.314 231.628C219.405 242.985 200.287 251.373 183.514 258.562C175.149 232.374 164.966 206.801 153.041 182.03V590.948H83.0842V58.2454ZM535.437 522.23V580.216H165.022V522.23H306.656V457.056H192.057V399.071H306.656V335.042H363.955C381.874 335.042 387.865 339.21 387.865 344.576C386.931 350.727 384.003 356.402 379.53 360.727V399.019H506.839V457.004H379.634V522.178L535.437 522.23ZM472.043 64.8098L497.775 86.3783C475.637 150.928 444.539 204.745 406.878 244.183C442.195 264.501 482.825 278.255 529.446 290.811C514.773 310.737 501.593 331.72 490.014 353.589C439.174 335.667 391.928 314.724 357.288 289.04C316.114 320.257 270.452 345.059 221.853 362.602C207.476 345.827 185.963 318.944 170.44 305.294C226.02 288.519 273.839 265.804 304.312 242.777C274.228 209.324 254.14 168.095 246.335 123.785H196.12V64.8098H472.043ZM314.261 123.42C320.835 151.215 333.942 177.041 352.495 198.754C371.337 176.07 386.651 150.673 397.918 123.42H314.261Z" fill="white"/>
<path d="M347.495 342.597C447.351 342.597 528.301 268.89 528.301 177.967C528.301 87.0447 447.351 13.3374 347.495 13.3374C247.639 13.3374 166.689 87.0447 166.689 177.967C166.689 268.89 247.639 342.597 347.495 342.597Z" fill="white"/>
<path d="M347.494 355.882C240.188 355.882 152.937 276.067 152.937 177.915C152.937 79.762 240.188 0 347.494 0C454.8 0 542.051 79.8141 542.051 177.915C542.051 276.015 454.748 355.882 347.494 355.882ZM347.494 26.622C255.346 26.622 180.388 94.3494 180.388 177.706C180.388 261.063 255.346 329.051 347.494 329.051C439.642 329.051 514.6 261.324 514.6 177.706C514.6 94.089 439.642 26.622 347.494 26.622Z" fill="black"/>
<path d="M514.601 111.959H176.118V138.581H514.601V111.959Z" fill="black"/>
<path d="M346.868 235.431C283.579 235.431 221.07 203.86 165.854 144.155L186.43 126.651C221.227 164.318 277.276 209.07 346.973 209.07H348.431C417.555 208.445 473.031 163.901 507.463 126.651L527.934 144.416C473.292 203.547 411.304 235.119 348.692 235.64L346.868 235.431Z" fill="black"/>
<path d="M346.243 303.783C260.502 303.783 183.773 246.788 155.02 161.451L181.065 153.168C206.12 227.512 272.379 277.213 346.191 277.213H347.91C420.837 276.536 486.783 226.678 511.526 153.168L537.571 161.451C509.026 245.798 432.922 303.002 347.91 303.783H346.243Z" fill="black"/>
<path d="M347.494 229.752C385.296 229.752 415.94 204.305 415.94 172.913C415.94 141.522 385.296 116.074 347.494 116.074C309.692 116.074 279.047 141.522 279.047 172.913C279.047 204.305 309.692 229.752 347.494 229.752Z" fill="black"/>
</g>
<defs>
<clipPath id="clip0">
<rect width="542" height="591" fill="white"/>
</clipPath>
</defs>
</svg>
