<svg width="45" height="37" viewBox="0 0 45 37" fill="none" xmlns="http://www.w3.org/2000/svg">
<path d="M41.4039 4.03335C42.0825 3.19791 42.5853 2.23189 42.8818 1.19413C42.6707 1.31243 42.5065 1.38341 42.3657 1.45439C40.8668 2.29291 39.2547 2.90663 37.5802 3.27622C37.4479 3.31485 37.3074 3.31538 37.1748 3.27776C37.0421 3.24013 36.9226 3.16584 36.8296 3.06328C34.4134 0.791901 31.5514 -0.0125428 28.3611 0.768245C25.2646 1.54903 23.1534 3.51283 22.0039 6.54134C21.4363 8.09198 21.3064 9.77102 21.6286 11.3917C21.652 11.5573 21.7693 11.7466 21.4174 11.7229C19.1841 11.572 16.9779 11.1429 14.8491 10.4453C10.8493 9.10134 7.23418 6.79504 4.31633 3.72577C3.84716 3.22891 3.40146 2.70838 2.93229 2.18786C1.78578 4.19128 1.43377 6.5582 1.94704 8.81273C2.46312 11.1314 3.72987 12.9533 5.72383 14.3965C4.29483 14.3392 2.89813 13.9506 1.64208 13.2608C1.60521 15.3847 2.31116 17.4538 3.63604 19.1049C4.94254 20.7553 6.77374 21.9002 8.82033 22.3464C8.7265 22.3937 8.70304 22.3937 8.67958 22.4174C8.59654 22.4466 8.50947 22.4626 8.42154 22.4647C7.33507 22.7087 6.21235 22.7408 5.11391 22.5593C4.87933 22.512 4.83241 22.5593 4.92625 22.7959C6.07571 25.8008 8.18696 27.7409 11.26 28.6163C11.9297 28.7769 12.6131 28.872 13.3009 28.9003C9.28949 31.9524 4.87933 33.1828 0 32.7332C0.987011 33.4081 2.03103 33.994 3.11995 34.4841C6.34504 35.941 9.82622 36.7333 13.3591 36.8146C16.892 36.8958 20.4053 36.2644 23.6929 34.9573C28.0505 33.2075 31.8141 30.225 34.5306 26.3686C38.0259 21.4473 39.7619 15.9818 39.6211 9.90109C39.6105 9.78934 39.6313 9.67684 39.6811 9.57643C39.7308 9.47602 39.8076 9.39175 39.9026 9.33325C41.088 8.4449 42.1596 7.41174 43.0929 6.25742C43.4448 5.83153 43.7498 5.38199 44.0782 4.93244C42.4911 5.57118 40.8264 5.99292 39.1285 6.18644C39.9746 5.56922 40.7393 4.84569 41.4039 4.03335Z" fill="white"/>
</svg>
