<svg width="40" height="40" viewBox="0 0 40 40" fill="none" xmlns="http://www.w3.org/2000/svg">
<path d="M39.9999 11.5462V10.5525C39.6011 9.96097 39.695 9.25115 39.5308 8.61233C38.3344 3.76198 34.8391 0.709805 29.9129 0.189279C29.7017 0.165619 29.4437 0.307583 29.3264 0H28.9276C28.5288 0.354904 28.13 0.260263 27.7312 0H12.3191C12.0611 0.260263 11.803 0.354904 11.5215 0H10.724C9.99675 0.473205 9.10533 0.378567 8.33121 0.63883C4.15563 1.9638 1.66905 4.77937 0.824546 9.10919C0.754171 9.53508 0.84801 10.0319 0.449219 10.3632V11.1676C0.801094 11.5699 0.70726 11.9721 0.449219 12.3743V27.5169C0.70726 27.9191 0.801094 28.3213 0.449219 28.7235V29.528C0.965302 30.3561 0.894921 31.3262 1.17642 32.2253C2.39625 36.2712 5.77426 39.2997 10.6536 39.6546C17.0182 40.1159 23.4075 40.1159 29.7721 39.6546C34.7453 39.276 38.8739 36.2002 39.7654 29.9066C39.7888 29.6936 39.6715 29.4333 39.9765 29.315V28.3213C39.6012 27.9191 39.7888 27.5169 39.9765 27.1146V12.3743C39.7654 12.0667 39.6481 11.8065 39.9999 11.5462ZM36.2701 28.5106C36.0824 33.0534 33.2674 35.8926 28.7634 36.0819C25.9015 36.2002 23.0396 36.2712 20.1777 36.2475C17.3392 36.2712 14.5242 36.2002 11.6857 36.0819C7.20521 35.8926 4.39021 33.0297 4.226 28.4869C3.99142 22.7848 3.99142 17.0748 4.226 11.3569C4.41367 6.79049 7.22867 3.9276 11.7796 3.76198C17.433 3.52538 23.0943 3.52538 28.7634 3.76198C33.2439 3.95126 36.1059 6.76683 36.2701 11.2859C36.4812 17.0117 36.4812 22.7533 36.2701 28.5106Z" fill="white"/>
<path d="M20.2248 9.62939C18.2132 9.62942 16.2467 10.2305 14.5735 11.3567C12.9002 12.483 11.5953 14.0839 10.8234 15.9575C10.0515 17.8311 9.84712 19.8933 10.2362 21.8839C10.6252 23.8745 11.5902 25.7042 13.0094 27.1422C14.4285 28.5801 16.2382 29.5618 18.21 29.9634C20.1818 30.3649 22.2273 30.1683 24.0884 29.3983C25.9496 28.6284 27.5428 27.3196 28.6671 25.6372C29.7915 23.9548 30.3964 21.9741 30.4057 19.9453C30.4045 17.2179 29.333 14.6019 27.4253 12.6689C25.5176 10.7359 22.9288 9.64315 20.2248 9.62939ZM20.2482 26.4991C19.3854 26.5042 18.5301 26.3361 17.7323 26.0047C16.9344 25.6733 16.2099 25.1851 15.6008 24.5686C14.9917 23.9521 14.5103 23.2196 14.1846 22.4137C13.8588 21.6077 13.6952 20.7445 13.7034 19.8743C13.7034 16.2069 16.6357 13.3204 20.3186 13.344C22.0482 13.3535 23.7032 14.0555 24.9196 15.2957C26.136 16.5358 26.8142 18.2126 26.8048 19.9571C26.7955 21.7016 26.0995 23.3708 24.8699 24.5977C23.6403 25.8246 21.9778 26.5086 20.2482 26.4991Z" fill="white"/>
<path d="M30.7814 6.83789C30.1501 6.84257 29.5453 7.09438 29.0945 7.54021C28.6437 7.98604 28.3822 8.59103 28.3652 9.22758C28.3705 9.8767 28.6253 10.4984 29.076 10.9618C29.5267 11.4252 30.1381 11.6941 30.7814 11.7119C31.1018 11.7057 31.4179 11.636 31.7116 11.5066C32.0052 11.3772 32.2707 11.1908 32.4929 10.9579C32.7151 10.725 32.8897 10.4502 33.0066 10.1492C33.1235 9.84829 33.1804 9.52707 33.1742 9.20391C33.1578 8.57346 32.899 7.97413 32.4525 7.53261C32.0059 7.0911 31.4067 6.84197 30.7814 6.83789Z" fill="white"/>
</svg>
