<svg width="38" height="38" viewBox="0 0 38 38" fill="none" xmlns="http://www.w3.org/2000/svg">
<path d="M37.537 1.83928C37.4379 1.37515 37.1878 0.957735 36.8266 0.653368C36.4653 0.349 36.0135 0.175136 35.5431 0.159404C35.4023 0.159404 35.2381 0.135742 35.0973 0.135742H2.65449C2.51374 0.135742 2.34953 0.159404 2.20878 0.159404C1.0124 0.254045 0.238281 1.15314 0.238281 2.45445V35.4368C0.238281 36.9038 1.10624 37.8028 2.56065 37.8028H35.2616C36.7629 37.8028 37.6074 36.9274 37.6074 35.4132V2.59641C37.5839 2.33615 37.5605 2.07588 37.537 1.83928ZM32.1416 16.7926C32.0478 17.6916 32.0478 18.6144 32.0009 19.5135C31.9774 20.0103 31.907 20.5072 31.8836 21.0041C31.8601 21.3353 31.649 21.2643 31.4613 21.2643C30.1007 21.2643 28.7401 21.288 27.3796 21.2407C26.8635 21.217 26.7696 21.4063 26.7696 21.8795C26.7931 23.9853 26.7696 26.091 26.7696 28.1968H26.7931V34.6087C26.7931 34.9873 26.6993 35.1292 26.3005 35.1056C24.893 35.0819 23.462 35.0819 22.0545 35.1056C21.6323 35.1056 21.5384 34.9636 21.5384 34.5614C21.5619 30.3262 21.5619 26.1147 21.5619 21.8795C21.5619 21.2407 21.5619 21.2407 20.9051 21.2407H18.3481C18.0432 21.2407 17.9259 21.1697 17.9259 20.8385C17.9493 19.4425 17.9493 18.0465 17.9259 16.6506C17.9259 16.3193 18.0432 16.2247 18.3481 16.2484C19.263 16.272 20.1544 16.2247 21.0693 16.272C21.4681 16.2957 21.5854 16.1537 21.5854 15.7752C21.5619 14.5212 21.5619 13.2672 21.5854 11.9895C21.6088 8.72441 23.4151 6.50035 26.5585 5.79054C27.9191 5.48296 29.3031 5.5776 30.6872 5.64858C30.7353 5.64485 30.7836 5.65297 30.8279 5.67224C31.2502 5.74322 31.8132 5.53028 32.0243 5.88518C32.212 6.16911 32.0947 6.68963 32.0712 7.09186C32.0478 8.06193 32.0009 9.00833 32.0009 9.9784C32.0009 10.3096 31.907 10.4279 31.5551 10.4279C30.6403 10.4043 29.7489 10.4043 28.834 10.4279C27.3796 10.4279 26.8166 10.9485 26.7696 12.3917C26.7227 13.5748 26.7696 14.7341 26.7462 15.9171C26.7462 16.272 26.9339 16.272 27.1919 16.272H31.6255C32.0712 16.2484 32.1885 16.343 32.1416 16.7926Z" fill="white"/>
</svg>
